<svg xmlns="http://www.w3.org/2000/svg" xmlns:xlink="http://www.w3.org/1999/xlink" width="200" zoomAndPan="magnify" viewBox="0 0 150 149.999998" height="200" preserveAspectRatio="xMidYMid meet" version="1.0"><defs><clipPath id="a39a665c80"><path d="M 86.925781 42 L 129.839844 42 L 129.839844 149.964844 L 86.925781 149.964844 Z M 86.925781 42 " clip-rule="nonzero"/></clipPath><clipPath id="de6b449b4f"><path d="M 20.339844 42 L 63.5625 42 L 63.5625 149.964844 L 20.339844 149.964844 Z M 20.339844 42 " clip-rule="nonzero"/></clipPath><clipPath id="88bb3cd795"><path d="M 27 1.511719 L 124 1.511719 L 124 89 L 27 89 Z M 27 1.511719 " clip-rule="nonzero"/></clipPath></defs><g clip-path="url(#a39a665c80)"><path fill="#000000" d="M 129.84375 72.375 L 124.105469 42.089844 C 124.105469 42.089844 118.511719 48.292969 120.015625 52.390625 L 119.527344 71.113281 L 101.816406 95.011719 L 103.765625 84.886719 C 106.0625 78.472656 100.382812 77.21875 100.382812 77.21875 L 88.152344 101.226562 L 86.964844 115.058594 L 86.964844 149.964844 L 103.621094 149.964844 L 103.621094 126.925781 L 119.308594 101.769531 L 129.84375 72.375 " fill-opacity="1" fill-rule="nonzero"/></g><g clip-path="url(#de6b449b4f)"><path fill="#000000" d="M 20.332031 72.375 L 26.074219 42.089844 C 26.074219 42.089844 31.667969 48.292969 30.160156 52.390625 L 30.648438 71.113281 L 48.359375 95.011719 L 46.414062 84.886719 C 44.117188 78.472656 49.792969 77.21875 49.792969 77.21875 L 62.023438 101.226562 L 63.214844 115.058594 L 63.214844 149.964844 L 46.550781 149.964844 L 46.550781 126.925781 L 30.867188 101.769531 L 20.332031 72.375 " fill-opacity="1" fill-rule="nonzero"/></g><g clip-path="url(#88bb3cd795)"><path fill="#d61d1d" d="M 99.113281 1.558594 C 85.847656 1.558594 75.089844 12.296875 75.089844 25.546875 C 75.089844 12.296875 64.328125 1.558594 51.0625 1.558594 C 37.789062 1.558594 27.03125 12.296875 27.03125 25.546875 C 27.03125 45.789062 51.210938 66.636719 75.089844 88.828125 C 98.964844 66.636719 123.144531 45.789062 123.144531 25.546875 C 123.144531 12.296875 112.386719 1.558594 99.113281 1.558594 " fill-opacity="1" fill-rule="nonzero"/></g><path fill="#d61d1d" d="M 85.351562 6.578125 C 85.308594 6.378906 85.257812 6.183594 85.210938 5.988281 L 85.238281 5.96875 C 85.277344 6.171875 85.308594 6.375 85.351562 6.578125 " fill-opacity="1" fill-rule="nonzero"/><path fill="#000000" d="M 27.03125 25.527344 C 27.03125 25.527344 27.03125 25.523438 27.03125 25.523438 C 27.03125 25.523438 27.03125 25.527344 27.03125 25.527344 M 27.03125 25.507812 C 27.03125 25.503906 27.03125 25.5 27.03125 25.5 C 27.03125 25.5 27.03125 25.507812 27.03125 25.507812 M 27.03125 25.488281 C 27.03125 25.484375 27.03125 25.480469 27.03125 25.480469 C 27.03125 25.480469 27.03125 25.484375 27.03125 25.488281 M 27.03125 25.46875 C 27.03125 25.464844 27.03125 25.460938 27.03125 25.460938 C 27.03125 25.460938 27.03125 25.464844 27.03125 25.46875 M 27.03125 25.449219 C 27.03125 25.445312 27.03125 25.441406 27.03125 25.4375 C 27.03125 25.441406 27.03125 25.445312 27.03125 25.449219 M 27.03125 25.425781 C 27.03125 25.425781 27.03125 25.421875 27.03125 25.417969 C 27.03125 25.421875 27.03125 25.425781 27.03125 25.425781 M 27.03125 25.40625 C 27.03125 25.40625 27.03125 25.402344 27.03125 25.398438 C 27.03125 25.402344 27.03125 25.40625 27.03125 25.40625 M 27.03125 25.386719 C 27.03125 25.386719 27.03125 25.382812 27.03125 25.378906 C 27.03125 25.382812 27.03125 25.382812 27.03125 25.386719 M 27.03125 25.367188 C 27.035156 25.363281 27.035156 25.363281 27.035156 25.359375 C 27.035156 25.359375 27.03125 25.367188 27.03125 25.367188 M 27.035156 25.347656 C 27.035156 25.34375 27.035156 25.339844 27.035156 25.339844 C 27.035156 25.339844 27.035156 25.34375 27.035156 25.347656 M 27.035156 25.328125 C 27.035156 25.324219 27.035156 25.320312 27.035156 25.316406 C 27.035156 25.320312 27.035156 25.324219 27.035156 25.328125 M 27.035156 25.304688 C 27.035156 25.304688 27.035156 25.300781 27.035156 25.296875 C 27.035156 25.300781 27.035156 25.304688 27.035156 25.304688 M 27.035156 25.285156 C 27.035156 25.285156 27.035156 25.28125 27.035156 25.277344 C 27.035156 25.28125 27.035156 25.285156 27.035156 25.285156 M 27.035156 25.261719 C 27.035156 25.261719 27.035156 25.261719 27.035156 25.257812 C 27.035156 25.261719 27.035156 25.261719 27.035156 25.261719 M 27.035156 25.242188 C 27.035156 25.242188 27.035156 25.238281 27.035156 25.238281 C 27.035156 25.242188 27.035156 25.242188 27.035156 25.242188 M 27.035156 25.199219 C 27.035156 25.195312 27.035156 25.195312 27.035156 25.195312 C 27.035156 25.195312 27.035156 25.199219 27.035156 25.199219 M 27.035156 25.179688 C 27.035156 25.175781 27.035156 25.175781 27.035156 25.171875 C 27.035156 25.175781 27.035156 25.175781 27.035156 25.179688 M 27.035156 25.160156 C 27.035156 25.15625 27.035156 25.152344 27.035156 25.152344 C 27.035156 25.152344 27.035156 25.15625 27.035156 25.160156 M 27.035156 25.136719 C 27.035156 25.136719 27.035156 25.132812 27.035156 25.132812 C 27.035156 25.132812 27.035156 25.136719 27.035156 25.136719 M 27.035156 25.117188 C 27.035156 25.117188 27.035156 25.113281 27.035156 25.113281 C 27.035156 25.113281 27.035156 25.117188 27.035156 25.117188 M 27.035156 25.097656 C 27.035156 25.09375 27.035156 25.09375 27.035156 25.089844 C 27.035156 25.09375 27.035156 25.09375 27.035156 25.097656 M 27.035156 25.078125 C 27.035156 25.074219 27.035156 25.074219 27.035156 25.070312 C 27.035156 25.074219 27.035156 25.074219 27.035156 25.078125 M 27.035156 25.058594 C 27.035156 25.054688 27.035156 25.050781 27.035156 25.050781 C 27.035156 25.050781 27.035156 25.054688 27.035156 25.058594 M 27.039062 25.039062 C 27.039062 25.035156 27.039062 25.03125 27.039062 25.03125 C 27.039062 25.03125 27.039062 25.035156 27.039062 25.039062 M 27.039062 25.015625 C 27.039062 25.015625 27.039062 25.011719 27.039062 25.011719 C 27.039062 25.011719 27.039062 25.015625 27.039062 25.015625 M 27.039062 24.996094 C 27.039062 24.996094 27.039062 24.992188 27.039062 24.988281 C 27.039062 24.992188 27.039062 24.996094 27.039062 24.996094 M 27.039062 24.972656 C 27.039062 24.972656 27.039062 24.972656 27.039062 24.96875 C 27.039062 24.972656 27.039062 24.972656 27.039062 24.972656 M 27.042969 24.847656 L 27.042969 24.847656 M 27.042969 24.828125 C 27.042969 24.828125 27.042969 24.828125 27.042969 24.824219 C 27.042969 24.828125 27.042969 24.828125 27.042969 24.828125 M 27.042969 24.808594 L 27.042969 24.804688 C 27.042969 24.808594 27.042969 24.804688 27.042969 24.808594 M 27.042969 24.789062 C 27.042969 24.785156 27.042969 24.785156 27.042969 24.785156 C 27.042969 24.785156 27.042969 24.785156 27.042969 24.789062 M 27.042969 24.765625 L 27.042969 24.765625 M 27.046875 24.746094 C 27.046875 24.746094 27.046875 24.746094 27.046875 24.742188 C 27.046875 24.746094 27.046875 24.746094 27.046875 24.746094 M 27.046875 24.726562 L 27.046875 24.722656 C 27.046875 24.726562 27.046875 24.722656 27.046875 24.726562 M 27.046875 24.707031 C 27.046875 24.703125 27.046875 24.703125 27.046875 24.703125 L 27.046875 24.707031 " fill-opacity="1" fill-rule="nonzero"/><path fill="#d61d1d" d="M 75.089844 88.828125 C 51.210938 66.636719 27.03125 45.789062 27.03125 25.546875 C 27.03125 25.542969 27.03125 25.535156 27.03125 25.527344 C 27.03125 25.527344 27.03125 25.523438 27.03125 25.523438 C 27.03125 25.515625 27.03125 25.511719 27.03125 25.507812 C 27.03125 25.507812 27.03125 25.5 27.03125 25.5 C 27.03125 25.496094 27.03125 25.492188 27.03125 25.488281 C 27.03125 25.484375 27.03125 25.480469 27.03125 25.480469 C 27.03125 25.476562 27.03125 25.472656 27.03125 25.46875 C 27.03125 25.464844 27.03125 25.460938 27.03125 25.460938 C 27.03125 25.457031 27.03125 25.453125 27.03125 25.449219 C 27.03125 25.445312 27.03125 25.441406 27.03125 25.4375 C 27.03125 25.433594 27.03125 25.429688 27.03125 25.425781 C 27.03125 25.425781 27.03125 25.421875 27.03125 25.417969 C 27.03125 25.414062 27.03125 25.410156 27.03125 25.40625 C 27.03125 25.40625 27.03125 25.402344 27.03125 25.398438 C 27.03125 25.394531 27.03125 25.390625 27.03125 25.386719 C 27.03125 25.382812 27.03125 25.382812 27.03125 25.378906 C 27.03125 25.375 27.03125 25.371094 27.03125 25.367188 C 27.03125 25.367188 27.035156 25.359375 27.035156 25.359375 C 27.035156 25.355469 27.035156 25.351562 27.035156 25.347656 C 27.035156 25.34375 27.035156 25.339844 27.035156 25.339844 C 27.035156 25.335938 27.035156 25.332031 27.035156 25.328125 C 27.035156 25.324219 27.035156 25.320312 27.035156 25.316406 C 27.035156 25.316406 27.035156 25.3125 27.035156 25.304688 C 27.035156 25.304688 27.035156 25.300781 27.035156 25.296875 C 27.035156 25.292969 27.035156 25.289062 27.035156 25.285156 C 27.035156 25.285156 27.035156 25.28125 27.035156 25.277344 C 27.035156 25.273438 27.035156 25.269531 27.035156 25.261719 C 27.035156 25.261719 27.035156 25.261719 27.035156 25.257812 C 27.035156 25.253906 27.035156 25.25 27.035156 25.242188 C 27.035156 25.242188 27.035156 25.242188 27.035156 25.238281 C 27.035156 25.222656 27.035156 25.210938 27.035156 25.199219 C 27.035156 25.199219 27.035156 25.195312 27.035156 25.195312 C 27.035156 25.1875 27.035156 25.183594 27.035156 25.179688 C 27.035156 25.175781 27.035156 25.175781 27.035156 25.171875 C 27.035156 25.167969 27.035156 25.164062 27.035156 25.160156 C 27.035156 25.15625 27.035156 25.152344 27.035156 25.152344 C 27.035156 25.148438 27.035156 25.140625 27.035156 25.136719 C 27.035156 25.136719 27.035156 25.132812 27.035156 25.132812 C 27.035156 25.125 27.035156 25.121094 27.035156 25.117188 C 27.035156 25.117188 27.035156 25.113281 27.035156 25.113281 C 27.035156 25.105469 27.035156 25.101562 27.035156 25.097656 C 27.035156 25.09375 27.035156 25.09375 27.035156 25.089844 C 27.035156 25.085938 27.035156 25.082031 27.035156 25.078125 C 27.035156 25.074219 27.035156 25.074219 27.035156 25.070312 C 27.035156 25.066406 27.035156 25.0625 27.035156 25.058594 C 27.035156 25.054688 27.035156 25.050781 27.035156 25.050781 C 27.035156 25.046875 27.039062 25.042969 27.039062 25.039062 C 27.039062 25.035156 27.039062 25.03125 27.039062 25.03125 C 27.039062 25.023438 27.039062 25.023438 27.039062 25.015625 C 27.039062 25.015625 27.039062 25.011719 27.039062 25.011719 C 27.039062 25.003906 27.039062 25 27.039062 24.996094 C 27.039062 24.996094 27.039062 24.992188 27.039062 24.988281 C 27.039062 24.984375 27.039062 24.980469 27.039062 24.972656 C 27.039062 24.972656 27.039062 24.972656 27.039062 24.96875 C 27.039062 24.964844 27.039062 24.957031 27.039062 24.949219 C 27.039062 24.917969 27.042969 24.882812 27.042969 24.847656 C 27.042969 24.839844 27.042969 24.835938 27.042969 24.828125 C 27.042969 24.828125 27.042969 24.828125 27.042969 24.824219 C 27.042969 24.820312 27.042969 24.8125 27.042969 24.808594 C 27.042969 24.804688 27.042969 24.808594 27.042969 24.804688 C 27.042969 24.800781 27.042969 24.792969 27.042969 24.789062 C 27.042969 24.785156 27.042969 24.785156 27.042969 24.785156 C 27.042969 24.777344 27.042969 24.773438 27.042969 24.765625 C 27.042969 24.757812 27.042969 24.753906 27.046875 24.746094 C 27.046875 24.746094 27.046875 24.746094 27.046875 24.742188 C 27.046875 24.738281 27.046875 24.730469 27.046875 24.726562 C 27.046875 24.722656 27.046875 24.726562 27.046875 24.722656 C 27.046875 24.71875 27.046875 24.710938 27.046875 24.707031 L 27.046875 24.703125 C 27.277344 17.992188 30.273438 11.980469 34.929688 7.769531 C 34.429688 10.8125 34.472656 14 35.152344 17.199219 C 39.425781 37.328125 66.699219 53.183594 95.066406 70.105469 C 88.765625 76.25 81.914062 82.484375 75.089844 88.828125 " fill-opacity="1" fill-rule="nonzero"/></svg>